<svg width="512" height="512" viewBox="0 0 512 512" fill="none" xmlns="http://www.w3.org/2000/svg">
<g clip-path="url(#clip0_202_2)">
<rect width="512" height="512" fill="white"/>
<rect width="512" height="512" fill="black"/>
<path d="M177.32 304V215.5H205.94C211.86 215.5 217.24 216.58 222.08 218.74C226.96 220.86 231.14 223.88 234.62 227.8C238.14 231.68 240.84 236.32 242.72 241.72C244.6 247.12 245.54 253.08 245.54 259.6C245.54 266.12 244.6 272.1 242.72 277.54C240.84 282.98 238.14 287.68 234.62 291.64C231.14 295.56 226.96 298.6 222.08 300.76C217.24 302.92 211.86 304 205.94 304H177.32ZM196.04 298.48L187.64 289.6H203.54C207.86 289.6 211.76 288.4 215.24 286C218.76 283.56 221.54 280.1 223.58 275.62C225.62 271.1 226.64 265.76 226.64 259.6C226.64 253.4 225.62 248.1 223.58 243.7C221.54 239.26 218.76 235.86 215.24 233.5C211.76 231.1 207.86 229.9 203.54 229.9H187.64L196.04 221.02V298.48ZM330.248 271.66C330.248 275.5 329.508 279.4 328.028 283.36C326.588 287.32 324.388 290.96 321.428 294.28C318.508 297.6 314.788 300.3 310.268 302.38C305.788 304.42 300.468 305.44 294.308 305.44C286.108 305.44 279.108 303.5 273.308 299.62C267.508 295.7 263.068 290.3 259.988 283.42C256.948 276.54 255.428 268.64 255.428 259.72C255.428 250.8 256.948 242.92 259.988 236.08C263.068 229.24 267.508 223.88 273.308 220C279.108 216.12 286.108 214.18 294.308 214.18C301.148 214.18 306.968 215.42 311.768 217.9C316.608 220.38 320.468 223.6 323.348 227.56C326.268 231.52 328.248 235.7 329.288 240.1C329.928 242.78 330.248 245.36 330.248 247.84H311.588C311.588 246.64 311.488 245.48 311.288 244.36C310.888 241.44 309.968 238.84 308.528 236.56C307.088 234.28 305.168 232.48 302.768 231.16C300.408 229.8 297.588 229.12 294.308 229.12C290.468 229.12 287.048 230.22 284.048 232.42C281.048 234.62 278.688 237.98 276.968 242.5C275.248 247.02 274.388 252.76 274.388 259.72C274.388 266.72 275.248 272.5 276.968 277.06C278.688 281.58 281.048 284.96 284.048 287.2C287.048 289.4 290.468 290.5 294.308 290.5C297.068 290.5 299.508 290 301.628 289C303.788 288 305.588 286.62 307.028 284.86C308.508 283.1 309.628 281.08 310.388 278.8C311.188 276.52 311.588 274.14 311.588 271.66H330.248Z" fill="white"/>
</g>
<defs>
<clipPath id="clip0_202_2">
<rect width="512" height="512" fill="white"/>
</clipPath>
</defs>
</svg>
