<svg width="1398" height="653" viewBox="0 0 1398 653" fill="none" xmlns="http://www.w3.org/2000/svg">
<g clip-path="url(#clip0_302_3)">
<rect width="1398" height="653" fill="white"/>
<g filter="url(#filter0_d_302_3)">
<path d="M0 0H1398V653H699H0V0Z" fill="#5440CE"/>
</g>
<path d="M469.034 370L449.091 304.545H459.659L473.807 354.659H474.489L488.466 304.545H499.205L513.011 354.489H513.693L527.841 304.545H538.409L518.466 370H508.58L494.261 319.716H493.239L478.92 370H469.034ZM576.921 371.364C570.614 371.364 565.174 369.972 560.6 367.188C556.055 364.375 552.546 360.455 550.075 355.426C547.631 350.369 546.41 344.489 546.41 337.784C546.41 331.08 547.631 325.17 550.075 320.057C552.546 314.915 555.984 310.909 560.387 308.04C564.819 305.142 569.989 303.693 575.898 303.693C579.308 303.693 582.674 304.261 585.998 305.398C589.322 306.534 592.347 308.381 595.075 310.938C597.802 313.466 599.975 316.818 601.594 320.994C603.214 325.17 604.023 330.312 604.023 336.42V340.682H553.569V331.989H593.796C593.796 328.295 593.058 325 591.58 322.102C590.131 319.205 588.058 316.918 585.359 315.241C582.688 313.565 579.535 312.727 575.898 312.727C571.893 312.727 568.427 313.722 565.501 315.71C562.603 317.67 560.373 320.227 558.81 323.381C557.248 326.534 556.467 329.915 556.467 333.523V339.318C556.467 344.261 557.319 348.452 559.023 351.889C560.756 355.298 563.157 357.898 566.225 359.688C569.293 361.449 572.859 362.33 576.921 362.33C579.563 362.33 581.95 361.96 584.08 361.222C586.239 360.455 588.1 359.318 589.663 357.812C591.225 356.278 592.433 354.375 593.285 352.102L603.001 354.83C601.978 358.125 600.259 361.023 597.844 363.523C595.43 365.994 592.447 367.926 588.896 369.318C585.344 370.682 581.353 371.364 576.921 371.364ZM629.379 282.727V370H619.322V282.727H629.379ZM674.389 371.364C668.253 371.364 662.969 369.915 658.537 367.017C654.105 364.119 650.696 360.128 648.31 355.043C645.923 349.957 644.73 344.148 644.73 337.614C644.73 330.966 645.952 325.099 648.395 320.014C650.866 314.901 654.304 310.909 658.707 308.04C663.139 305.142 668.31 303.693 674.219 303.693C678.821 303.693 682.969 304.545 686.662 306.25C690.355 307.955 693.381 310.341 695.739 313.409C698.097 316.477 699.56 320.057 700.128 324.148H690.071C689.304 321.165 687.599 318.523 684.957 316.222C682.344 313.892 678.821 312.727 674.389 312.727C670.469 312.727 667.031 313.75 664.077 315.795C661.151 317.812 658.864 320.668 657.216 324.361C655.597 328.026 654.787 332.33 654.787 337.273C654.787 342.33 655.582 346.733 657.173 350.483C658.793 354.233 661.065 357.145 663.991 359.219C666.946 361.293 670.412 362.33 674.389 362.33C677.003 362.33 679.375 361.875 681.506 360.966C683.636 360.057 685.44 358.75 686.918 357.045C688.395 355.341 689.446 353.295 690.071 350.909H700.128C699.56 354.773 698.153 358.253 695.909 361.349C693.693 364.418 690.753 366.861 687.088 368.679C683.452 370.469 679.219 371.364 674.389 371.364ZM741.42 371.364C735.511 371.364 730.327 369.957 725.866 367.145C721.435 364.332 717.969 360.398 715.469 355.341C712.997 350.284 711.761 344.375 711.761 337.614C711.761 330.795 712.997 324.844 715.469 319.759C717.969 314.673 721.435 310.724 725.866 307.912C730.327 305.099 735.511 303.693 741.42 303.693C747.33 303.693 752.5 305.099 756.932 307.912C761.392 310.724 764.858 314.673 767.33 319.759C769.83 324.844 771.08 330.795 771.08 337.614C771.08 344.375 769.83 350.284 767.33 355.341C764.858 360.398 761.392 364.332 756.932 367.145C752.5 369.957 747.33 371.364 741.42 371.364ZM741.42 362.33C745.909 362.33 749.602 361.179 752.5 358.878C755.398 356.577 757.543 353.551 758.935 349.801C760.327 346.051 761.023 341.989 761.023 337.614C761.023 333.239 760.327 329.162 758.935 325.384C757.543 321.605 755.398 318.551 752.5 316.222C749.602 313.892 745.909 312.727 741.42 312.727C736.932 312.727 733.239 313.892 730.341 316.222C727.443 318.551 725.298 321.605 723.906 325.384C722.514 329.162 721.818 333.239 721.818 337.614C721.818 341.989 722.514 346.051 723.906 349.801C725.298 353.551 727.443 356.577 730.341 358.878C733.239 361.179 736.932 362.33 741.42 362.33ZM786.431 370V304.545H796.147V314.773H796.999C798.363 311.278 800.565 308.565 803.604 306.634C806.644 304.673 810.295 303.693 814.556 303.693C818.874 303.693 822.468 304.673 825.337 306.634C828.235 308.565 830.494 311.278 832.113 314.773H832.795C834.471 311.392 836.985 308.707 840.337 306.719C843.69 304.702 847.71 303.693 852.397 303.693C858.249 303.693 863.036 305.526 866.758 309.19C870.479 312.827 872.34 318.494 872.34 326.193V370H862.283V326.193C862.283 321.364 860.962 317.912 858.32 315.838C855.678 313.764 852.567 312.727 848.988 312.727C844.386 312.727 840.82 314.119 838.292 316.903C835.763 319.659 834.499 323.153 834.499 327.386V370H824.272V325.17C824.272 321.449 823.065 318.452 820.65 316.179C818.235 313.878 815.124 312.727 811.317 312.727C808.704 312.727 806.261 313.423 803.988 314.815C801.744 316.207 799.925 318.139 798.533 320.611C797.17 323.054 796.488 325.881 796.488 329.091V370H786.431ZM918.171 371.364C911.864 371.364 906.424 369.972 901.85 367.188C897.305 364.375 893.796 360.455 891.325 355.426C888.881 350.369 887.66 344.489 887.66 337.784C887.66 331.08 888.881 325.17 891.325 320.057C893.796 314.915 897.234 310.909 901.637 308.04C906.069 305.142 911.239 303.693 917.148 303.693C920.558 303.693 923.924 304.261 927.248 305.398C930.572 306.534 933.597 308.381 936.325 310.938C939.052 313.466 941.225 316.818 942.844 320.994C944.464 325.17 945.273 330.312 945.273 336.42V340.682H894.819V331.989H935.046C935.046 328.295 934.308 325 932.83 322.102C931.381 319.205 929.308 316.918 926.609 315.241C923.938 313.565 920.785 312.727 917.148 312.727C913.143 312.727 909.677 313.722 906.751 315.71C903.853 317.67 901.623 320.227 900.06 323.381C898.498 326.534 897.717 329.915 897.717 333.523V339.318C897.717 344.261 898.569 348.452 900.273 351.889C902.006 355.298 904.407 357.898 907.475 359.688C910.543 361.449 914.109 362.33 918.171 362.33C920.813 362.33 923.2 361.96 925.33 361.222C927.489 360.455 929.35 359.318 930.913 357.812C932.475 356.278 933.683 354.375 934.535 352.102L944.251 354.83C943.228 358.125 941.509 361.023 939.094 363.523C936.68 365.994 933.697 367.926 930.146 369.318C926.594 370.682 922.603 371.364 918.171 371.364Z" fill="white"/>
</g>
<defs>
<filter id="filter0_d_302_3" x="-4" y="0" width="1406" height="661" filterUnits="userSpaceOnUse" color-interpolation-filters="sRGB">
<feFlood flood-opacity="0" result="BackgroundImageFix"/>
<feColorMatrix in="SourceAlpha" type="matrix" values="0 0 0 0 0 0 0 0 0 0 0 0 0 0 0 0 0 0 127 0" result="hardAlpha"/>
<feOffset dy="4"/>
<feGaussianBlur stdDeviation="2"/>
<feComposite in2="hardAlpha" operator="out"/>
<feColorMatrix type="matrix" values="0 0 0 0 0 0 0 0 0 0 0 0 0 0 0 0 0 0 0.25 0"/>
<feBlend mode="normal" in2="BackgroundImageFix" result="effect1_dropShadow_302_3"/>
<feBlend mode="normal" in="SourceGraphic" in2="effect1_dropShadow_302_3" result="shape"/>
</filter>
<clipPath id="clip0_302_3">
<rect width="1398" height="653" fill="white"/>
</clipPath>
</defs>
</svg>
