<svg width="1398" height="653" viewBox="0 0 1398 653" fill="none" xmlns="http://www.w3.org/2000/svg">
<g clip-path="url(#clip0_302_3)">
<rect width="1398" height="653" fill="white"/>
<g filter="url(#filter0_d_302_3)">
<path d="M0 0H1398V653H699H0V0Z" fill="#3D01E9"/>
</g>
<path d="M693.92 371.193C688.182 371.193 683.239 370.142 679.091 368.04C674.943 365.937 671.747 363.054 669.503 359.389C667.259 355.724 666.136 351.534 666.136 346.818C666.136 343.182 666.903 339.957 668.438 337.145C670 334.304 672.145 331.676 674.872 329.261C677.628 326.818 680.795 324.375 684.375 321.932L696.989 312.557C699.46 310.937 701.435 309.205 702.912 307.358C704.418 305.511 705.17 303.097 705.17 300.114C705.17 297.898 704.19 295.753 702.23 293.679C700.298 291.605 697.756 290.568 694.602 290.568C692.386 290.568 690.426 291.136 688.722 292.273C687.045 293.381 685.724 294.801 684.759 296.534C683.821 298.239 683.352 300 683.352 301.818C683.352 303.864 683.906 305.938 685.014 308.04C686.151 310.114 687.585 312.244 689.318 314.432C691.08 316.591 692.898 318.807 694.773 321.08L734.83 370H722.727L689.659 330.114C686.591 326.42 683.807 323.068 681.307 320.057C678.807 317.045 676.818 314.077 675.341 311.151C673.864 308.224 673.125 305.057 673.125 301.648C673.125 297.727 673.991 294.29 675.724 291.335C677.486 288.352 679.943 286.037 683.097 284.389C686.278 282.713 690 281.875 694.261 281.875C698.636 281.875 702.401 282.727 705.554 284.432C708.707 286.108 711.136 288.338 712.841 291.122C714.545 293.878 715.398 296.875 715.398 300.114C715.398 304.29 714.361 307.912 712.287 310.98C710.213 314.048 707.386 316.903 703.807 319.545L686.42 332.5C682.5 335.398 679.844 338.21 678.452 340.938C677.06 343.665 676.364 345.625 676.364 346.818C676.364 349.545 677.074 352.088 678.494 354.446C679.915 356.804 681.918 358.707 684.503 360.156C687.088 361.605 690.114 362.33 693.58 362.33C696.875 362.33 700.085 361.634 703.21 360.241C706.335 358.821 709.162 356.776 711.69 354.105C714.247 351.435 716.264 348.224 717.741 344.474C719.247 340.724 720 336.506 720 331.818H729.716C729.716 337.614 729.048 342.344 727.713 346.009C726.378 349.673 724.872 352.543 723.196 354.616C721.52 356.69 720.17 358.239 719.148 359.261C718.807 359.687 718.494 360.114 718.21 360.54C717.926 360.966 717.614 361.392 717.273 361.818C714.46 364.972 710.909 367.33 706.619 368.892C702.33 370.426 698.097 371.193 693.92 371.193Z" fill="white"/>
</g>
<defs>
<filter id="filter0_d_302_3" x="-4" y="0" width="1406" height="661" filterUnits="userSpaceOnUse" color-interpolation-filters="sRGB">
<feFlood flood-opacity="0" result="BackgroundImageFix"/>
<feColorMatrix in="SourceAlpha" type="matrix" values="0 0 0 0 0 0 0 0 0 0 0 0 0 0 0 0 0 0 127 0" result="hardAlpha"/>
<feOffset dy="4"/>
<feGaussianBlur stdDeviation="2"/>
<feComposite in2="hardAlpha" operator="out"/>
<feColorMatrix type="matrix" values="0 0 0 0 0 0 0 0 0 0 0 0 0 0 0 0 0 0 0.25 0"/>
<feBlend mode="normal" in2="BackgroundImageFix" result="effect1_dropShadow_302_3"/>
<feBlend mode="normal" in="SourceGraphic" in2="effect1_dropShadow_302_3" result="shape"/>
</filter>
<clipPath id="clip0_302_3">
<rect width="1398" height="653" fill="white"/>
</clipPath>
</defs>
</svg>
