<svg width="1398" height="653" viewBox="0 0 1398 653" fill="none" xmlns="http://www.w3.org/2000/svg">
<g clip-path="url(#clip0_302_3)">
<rect width="1398" height="653" fill="white"/>
<g filter="url(#filter0_d_302_3)">
<path d="M0 0H1398V653H699H0V0Z" fill="#210D9B"/>
</g>
<path d="M565.568 370V282.727H576.136V321.591H622.67V282.727H633.239V370H622.67V330.966H576.136V370H565.568ZM680.476 371.364C674.169 371.364 668.729 369.972 664.155 367.188C659.609 364.375 656.101 360.455 653.629 355.426C651.186 350.369 649.964 344.489 649.964 337.784C649.964 331.08 651.186 325.17 653.629 320.057C656.101 314.915 659.538 310.909 663.942 308.04C668.374 305.142 673.544 303.693 679.453 303.693C682.862 303.693 686.229 304.261 689.553 305.398C692.876 306.534 695.902 308.381 698.629 310.938C701.357 313.466 703.53 316.818 705.149 320.994C706.768 325.17 707.578 330.312 707.578 336.42V340.682H657.124V331.989H697.351C697.351 328.295 696.612 325 695.135 322.102C693.686 319.205 691.612 316.918 688.913 315.241C686.243 313.565 683.089 312.727 679.453 312.727C675.447 312.727 671.982 313.722 669.055 315.71C666.158 317.67 663.928 320.227 662.365 323.381C660.803 326.534 660.021 329.915 660.021 333.523V339.318C660.021 344.261 660.874 348.452 662.578 351.889C664.311 355.298 666.712 357.898 669.78 359.688C672.848 361.449 676.413 362.33 680.476 362.33C683.118 362.33 685.504 361.96 687.635 361.222C689.794 360.455 691.655 359.318 693.217 357.812C694.78 356.278 695.987 354.375 696.839 352.102L706.555 354.83C705.533 358.125 703.814 361.023 701.399 363.523C698.984 365.994 696.001 367.926 692.45 369.318C688.899 370.682 684.908 371.364 680.476 371.364ZM732.933 282.727V370H722.876V282.727H732.933ZM761.41 282.727V370H751.353V282.727H761.41ZM806.42 371.364C800.511 371.364 795.327 369.957 790.866 367.145C786.435 364.332 782.969 360.398 780.469 355.341C777.997 350.284 776.761 344.375 776.761 337.614C776.761 330.795 777.997 324.844 780.469 319.759C782.969 314.673 786.435 310.724 790.866 307.912C795.327 305.099 800.511 303.693 806.42 303.693C812.33 303.693 817.5 305.099 821.932 307.912C826.392 310.724 829.858 314.673 832.33 319.759C834.83 324.844 836.08 330.795 836.08 337.614C836.08 344.375 834.83 350.284 832.33 355.341C829.858 360.398 826.392 364.332 821.932 367.145C817.5 369.957 812.33 371.364 806.42 371.364ZM806.42 362.33C810.909 362.33 814.602 361.179 817.5 358.878C820.398 356.577 822.543 353.551 823.935 349.801C825.327 346.051 826.023 341.989 826.023 337.614C826.023 333.239 825.327 329.162 823.935 325.384C822.543 321.605 820.398 318.551 817.5 316.222C814.602 313.892 810.909 312.727 806.42 312.727C801.932 312.727 798.239 313.892 795.341 316.222C792.443 318.551 790.298 321.605 788.906 325.384C787.514 329.162 786.818 333.239 786.818 337.614C786.818 341.989 787.514 346.051 788.906 349.801C790.298 353.551 792.443 356.577 795.341 358.878C798.239 361.179 801.932 362.33 806.42 362.33Z" fill="white"/>
</g>
<defs>
<filter id="filter0_d_302_3" x="-4" y="0" width="1406" height="661" filterUnits="userSpaceOnUse" color-interpolation-filters="sRGB">
<feFlood flood-opacity="0" result="BackgroundImageFix"/>
<feColorMatrix in="SourceAlpha" type="matrix" values="0 0 0 0 0 0 0 0 0 0 0 0 0 0 0 0 0 0 127 0" result="hardAlpha"/>
<feOffset dy="4"/>
<feGaussianBlur stdDeviation="2"/>
<feComposite in2="hardAlpha" operator="out"/>
<feColorMatrix type="matrix" values="0 0 0 0 0 0 0 0 0 0 0 0 0 0 0 0 0 0 0.25 0"/>
<feBlend mode="normal" in2="BackgroundImageFix" result="effect1_dropShadow_302_3"/>
<feBlend mode="normal" in="SourceGraphic" in2="effect1_dropShadow_302_3" result="shape"/>
</filter>
<clipPath id="clip0_302_3">
<rect width="1398" height="653" fill="white"/>
</clipPath>
</defs>
</svg>
